<mxfile host="app.diagrams.net" modified="2023-06-15T22:26:10.599Z" agent="Mozilla/5.0 (Windows NT 10.0; Win64; x64; rv:109.0) Gecko/20100101 Firefox/112.0" etag="gPvx5nr__kLYOEfRTSo1" version="21.3.8" type="github">
  <diagram name="Page-1" id="03018318-947c-dd8e-b7a3-06fadd420f32">
    <mxGraphModel dx="1636" dy="1106" grid="1" gridSize="10" guides="1" tooltips="1" connect="1" arrows="1" fold="1" page="1" pageScale="1" pageWidth="1169" pageHeight="827" background="#ffffff" math="0" shadow="0">
      <root>
        <mxCell id="0" />
        <mxCell id="1" parent="0" />
        <mxCell id="p1CUKzJV35EKfwokwG-7-3" value="" style="rounded=0;whiteSpace=wrap;html=1;fillColor=#6a00ff;fontColor=#ffffff;strokeColor=#3700CC;" vertex="1" parent="1">
          <mxGeometry width="1169" height="827" as="geometry" />
        </mxCell>
        <mxCell id="p1CUKzJV35EKfwokwG-7-4" value="" style="rounded=0;whiteSpace=wrap;html=1;" vertex="1" parent="1">
          <mxGeometry y="100" width="1169" height="727" as="geometry" />
        </mxCell>
        <mxCell id="p1CUKzJV35EKfwokwG-7-5" value="Notifications" style="html=1;shadow=0;dashed=0;shape=mxgraph.bootstrap.rrect;rSize=5;strokeWidth=1;whiteSpace=wrap;align=left;verticalAlign=middle;spacingLeft=10;fontStyle=0;fontSize=14;fillColor=#dae8fc;strokeColor=#6c8ebf;" vertex="1" parent="1">
          <mxGeometry x="1020" y="30" width="130" height="40" as="geometry" />
        </mxCell>
        <mxCell id="p1CUKzJV35EKfwokwG-7-6" value="4" style="html=1;shadow=0;dashed=0;shape=mxgraph.bootstrap.rrect;rSize=5;strokeColor=none;strokeWidth=1;fillColor=#ffffff;fontColor=#000000;whiteSpace=wrap;align=center;verticalAlign=middle;fontSize=12;" vertex="1" parent="p1CUKzJV35EKfwokwG-7-5">
          <mxGeometry x="1" y="0.5" width="20" height="20" relative="1" as="geometry">
            <mxPoint x="-30" y="-10" as="offset" />
          </mxGeometry>
        </mxCell>
        <mxCell id="p1CUKzJV35EKfwokwG-7-7" value="晚上好，guest" style="text;strokeColor=none;align=left;fillColor=none;html=1;verticalAlign=middle;whiteSpace=wrap;rounded=0;fontSize=12;fontColor=#F2F2F2;" vertex="1" parent="1">
          <mxGeometry x="919" y="35" width="250" height="30" as="geometry" />
        </mxCell>
        <mxCell id="p1CUKzJV35EKfwokwG-7-8" value="标签" style="html=1;shadow=0;dashed=0;shape=mxgraph.bootstrap.rrect;rSize=5;strokeColor=#CED4DA;html=1;whiteSpace=wrap;fillColor=#FFFFFF;fontColor=#7D868C;align=left;spacing=15;fontSize=14;" vertex="1" parent="1">
          <mxGeometry x="185" y="270" width="800" height="40" as="geometry" />
        </mxCell>
        <mxCell id="p1CUKzJV35EKfwokwG-7-9" value="标签" style="html=1;shadow=0;dashed=0;strokeColor=#CED4DA;gradientColor=inherit;fontColor=inherit;fillColor=#E9ECEF;rSize=5;perimeter=none;whiteSpace=wrap;resizeHeight=1;fontSize=14;align=left;spacing=15;" vertex="1" parent="p1CUKzJV35EKfwokwG-7-8">
          <mxGeometry x="1" width="80" height="40" relative="1" as="geometry">
            <mxPoint x="-160" as="offset" />
          </mxGeometry>
        </mxCell>
        <mxCell id="p1CUKzJV35EKfwokwG-7-10" value="搜索" style="html=1;shadow=0;dashed=0;shape=mxgraph.bootstrap.rightButton;strokeColor=#6C757D;gradientColor=inherit;fontColor=inherit;fillColor=#ffffff;rSize=5;perimeter=none;whiteSpace=wrap;resizeHeight=1;fontSize=14;align=left;spacing=15;" vertex="1" parent="p1CUKzJV35EKfwokwG-7-8">
          <mxGeometry x="1" width="80" height="40" relative="1" as="geometry">
            <mxPoint x="-80" as="offset" />
          </mxGeometry>
        </mxCell>
        <mxCell id="p1CUKzJV35EKfwokwG-7-11" value="档案搜索" style="text;strokeColor=none;align=left;fillColor=none;html=1;verticalAlign=middle;whiteSpace=wrap;rounded=0;fontSize=36;" vertex="1" parent="1">
          <mxGeometry x="185" y="200" width="250" height="30" as="geometry" />
        </mxCell>
        <mxCell id="p1CUKzJV35EKfwokwG-7-12" value="" style="html=1;shadow=0;dashed=0;shape=mxgraph.bootstrap.rrect;rSize=5;strokeColor=#DFDFDF;html=1;whiteSpace=wrap;fillColor=#FFFFFF;fontColor=#000000;" vertex="1" parent="1">
          <mxGeometry x="430" y="324.5" width="555" height="181" as="geometry" />
        </mxCell>
        <mxCell id="p1CUKzJV35EKfwokwG-7-13" value="标签1" style="strokeColor=inherit;fillColor=inherit;gradientColor=inherit;fontColor=inherit;html=1;shadow=0;dashed=0;shape=mxgraph.bootstrap.topButton;rSize=5;perimeter=none;whiteSpace=wrap;resizeWidth=1;align=left;spacing=10;" vertex="1" parent="p1CUKzJV35EKfwokwG-7-12">
          <mxGeometry width="555" height="30" relative="1" as="geometry" />
        </mxCell>
        <mxCell id="p1CUKzJV35EKfwokwG-7-14" value="标签2" style="strokeColor=inherit;fillColor=inherit;gradientColor=inherit;fontColor=inherit;html=1;shadow=0;dashed=0;perimeter=none;whiteSpace=wrap;resizeWidth=1;align=left;spacing=10;" vertex="1" parent="p1CUKzJV35EKfwokwG-7-12">
          <mxGeometry width="555" height="30" relative="1" as="geometry">
            <mxPoint y="30" as="offset" />
          </mxGeometry>
        </mxCell>
        <mxCell id="p1CUKzJV35EKfwokwG-7-15" value="标签3" style="strokeColor=inherit;fillColor=inherit;gradientColor=inherit;fontColor=inherit;html=1;shadow=0;dashed=0;shape=mxgraph.bootstrap.bottomButton;rSize=5;perimeter=none;whiteSpace=wrap;resizeWidth=1;resizeHeight=0;align=left;spacing=10;" vertex="1" parent="p1CUKzJV35EKfwokwG-7-12">
          <mxGeometry y="1" width="555" height="30" relative="1" as="geometry">
            <mxPoint y="-120" as="offset" />
          </mxGeometry>
        </mxCell>
        <mxCell id="p1CUKzJV35EKfwokwG-7-16" value="标签种类" style="html=1;shadow=0;dashed=0;shape=mxgraph.bootstrap.rrect;rSize=5;strokeColor=none;strokeWidth=1;fillColor=#6C767D;fontColor=#ffffff;whiteSpace=wrap;align=left;verticalAlign=middle;fontStyle=0;fontSize=14;spacingLeft=10;" vertex="1" parent="1">
          <mxGeometry x="185" y="324.5" width="155" height="40" as="geometry" />
        </mxCell>
        <mxCell id="p1CUKzJV35EKfwokwG-7-17" value="" style="shape=triangle;direction=south;fillColor=#ffffff;strokeColor=none;perimeter=none;" vertex="1" parent="p1CUKzJV35EKfwokwG-7-16">
          <mxGeometry x="1" y="0.5" width="10" height="5" relative="1" as="geometry">
            <mxPoint x="-17" y="-2.5" as="offset" />
          </mxGeometry>
        </mxCell>
        <mxCell id="p1CUKzJV35EKfwokwG-7-18" value="" style="html=1;shadow=0;dashed=0;shape=mxgraph.bootstrap.rrect;rSize=5;fillColor=#ffffff;strokeColor=#999999;" vertex="1" parent="1">
          <mxGeometry x="185" y="370" width="185" height="140" as="geometry" />
        </mxCell>
        <mxCell id="p1CUKzJV35EKfwokwG-7-19" value="Action" style="fillColor=none;strokeColor=none;align=left;spacing=20;fontSize=14;" vertex="1" parent="p1CUKzJV35EKfwokwG-7-18">
          <mxGeometry width="170" height="30" relative="1" as="geometry">
            <mxPoint y="10" as="offset" />
          </mxGeometry>
        </mxCell>
        <mxCell id="p1CUKzJV35EKfwokwG-7-20" value="Another action" style="fillColor=none;strokeColor=none;align=left;spacing=20;fontSize=14;" vertex="1" parent="p1CUKzJV35EKfwokwG-7-18">
          <mxGeometry width="170" height="30" relative="1" as="geometry">
            <mxPoint y="40" as="offset" />
          </mxGeometry>
        </mxCell>
        <mxCell id="p1CUKzJV35EKfwokwG-7-21" value="Something else here" style="fillColor=none;strokeColor=none;align=left;spacing=20;fontSize=14;" vertex="1" parent="p1CUKzJV35EKfwokwG-7-18">
          <mxGeometry width="170" height="30" relative="1" as="geometry">
            <mxPoint y="70" as="offset" />
          </mxGeometry>
        </mxCell>
        <mxCell id="p1CUKzJV35EKfwokwG-7-22" value="高级选项" style="html=1;shadow=0;dashed=0;shape=mxgraph.bootstrap.rrect;rSize=5;strokeColor=none;strokeWidth=1;fillColor=#6C767D;fontColor=#FFFFFF;whiteSpace=wrap;align=center;verticalAlign=middle;spacingLeft=0;fontStyle=0;fontSize=16;spacing=5;" vertex="1" parent="1">
          <mxGeometry x="185" y="540" width="800" height="40" as="geometry" />
        </mxCell>
      </root>
    </mxGraphModel>
  </diagram>
</mxfile>
